<?xml version="1.0" encoding="utf-8"?>
<svg width="512" height="512" viewBox="0 0 512 512" fill="none" xmlns="http://www.w3.org/2000/svg">
  <defs>
    <clipPath id="clip_path_1">
      <rect width="512" height="512" rx="65" />
    </clipPath>
  </defs>
  <g clip-path="url(#clip_path_1)">
    <rect width="512" height="512" fill="#FF0000" fill-rule="evenodd" />
    <g transform="translate(69 107)">
      <path d="M186.5 121.469C219.975 121.469 247.113 94.277 247.113 60.7344C247.113 27.1917 219.975 0 186.5 0C153.025 0 125.888 27.1917 125.888 60.7344C125.888 94.277 153.025 121.469 186.5 121.469C186.5 121.469 186.5 121.469 186.5 121.469ZM55.95 126.141C79.1253 126.141 97.9125 107.316 97.9125 84.0937C97.9125 60.8719 79.1253 42.0469 55.95 42.0469C32.7747 42.0469 13.9875 60.8719 13.9875 84.0937C13.9875 107.316 32.7747 126.141 55.95 126.141C55.95 126.141 55.95 126.141 55.95 126.141ZM8.62421e-07 233.594C8.62421e-07 233.594 8.62421e-07 252.281 8.62421e-07 252.281C8.62421e-07 262.618 8.33422 270.969 18.65 270.969C18.65 270.969 69.1798 270.969 69.1798 270.969C66.6738 265.246 65.275 258.939 65.275 252.281C65.275 252.281 65.275 242.937 65.275 242.937C65.275 211.87 76.9313 183.488 96.1058 161.997C89.2869 159.953 82.06 158.844 74.6 158.844C33.3952 158.844 -3.58409e-06 192.306 -3.58409e-06 233.594C-3.58409e-06 233.594 8.62421e-07 233.594 8.62421e-07 233.594ZM359.013 84.0937C359.013 60.8719 340.225 42.0469 317.05 42.0469C293.875 42.0469 275.087 60.8719 275.087 84.0937C275.087 107.316 293.875 126.141 317.05 126.141C340.225 126.141 359.013 107.316 359.013 84.0937C359.013 84.0937 359.013 84.0937 359.013 84.0937ZM93.25 242.937C93.25 242.937 93.25 252.281 93.25 252.281C93.25 262.618 101.584 270.969 111.9 270.969C111.9 270.969 203.285 270.969 203.285 270.969C199.147 258.355 199.613 245.04 209.521 233.594C201.362 224.133 197.573 210.41 202.877 196.628C206.724 186.641 212.144 177.298 218.846 169.005C221.993 165.151 225.607 162.172 229.512 160.012C216.631 153.296 202.003 149.5 186.5 149.5C134.979 149.5 93.25 191.313 93.25 242.937C93.25 242.937 93.25 242.937 93.25 242.937ZM364.025 217.184C367.696 215.081 369.561 210.702 367.988 206.672C365.19 199.431 361.285 192.598 356.39 186.583C353.709 183.254 348.988 182.67 345.316 184.831C332.611 192.189 316.992 183.196 316.992 168.421C316.992 164.158 314.136 160.362 309.94 159.72C302.421 158.552 294.32 158.552 286.802 159.72C282.606 160.362 279.75 164.158 279.75 168.421C279.75 183.137 264.131 192.189 251.425 184.831C247.754 182.729 243.033 183.313 240.352 186.583C235.456 192.598 231.551 199.431 228.754 206.672C227.239 210.643 229.045 215.023 232.717 217.125C245.481 224.484 245.481 242.529 232.717 249.945C229.045 252.048 227.18 256.428 228.754 260.399C231.551 267.64 235.456 274.473 240.352 280.488C243.033 283.816 247.754 284.4 251.425 282.24C264.131 274.881 279.75 283.933 279.75 298.65C279.75 302.913 282.606 306.709 286.802 307.351C294.32 308.519 302.421 308.519 309.94 307.351C314.136 306.709 316.992 302.913 316.992 298.65C316.992 283.933 332.611 274.881 345.316 282.24C348.988 284.342 353.709 283.758 356.39 280.488C361.285 274.473 365.19 267.64 367.988 260.399C369.503 256.428 367.696 252.048 364.025 249.945C351.261 242.587 351.261 224.542 364.025 217.125C364.025 217.125 364.025 217.184 364.025 217.184ZM275.087 233.594C275.087 220.693 285.525 210.234 298.4 210.234C311.275 210.234 321.712 220.693 321.712 233.594C321.712 246.495 311.275 256.953 298.4 256.953C285.525 256.953 275.087 246.495 275.087 233.594C275.087 233.594 275.087 233.594 275.087 233.594Z" fill="#FFFFFF" transform="translate(0 9.344)" />
    </g>
  </g>
</svg>